<svg xmlns="http://www.w3.org/2000/svg" xmlns:xlink="http://www.w3.org/1999/xlink" width="64" height="64" viewBox="0 0 64 64">
  <defs>
    <clipPath id="clip-path">
      <path id="Clip_2" data-name="Clip 2" d="M0,0H64V64H0Z" fill="none"/>
    </clipPath>
  </defs>
  <g id="Group_6" data-name="Group 6" opacity="0.198">
    <g id="Group_3" data-name="Group 3">
      <path id="Clip_2-2" data-name="Clip 2" d="M0,0H64V64H0Z" fill="none"/>
      <g id="Group_3-2" data-name="Group 3" clip-path="url(#clip-path)">
        <path id="Fill_1" data-name="Fill 1" d="M32,64A32,32,0,1,1,64,32,32.036,32.036,0,0,1,32,64ZM32,2.921A29.079,29.079,0,1,0,61.079,32,29.113,29.113,0,0,0,32,2.921Z" transform="translate(0 0)"/>
      </g>
    </g>
    <path id="Fill_4" data-name="Fill 4" d="M32.834,37.719c-6.4,0-8.36-3.1-8.9-4.436-.256-.639-.27-.876.124-1.32.676-.748,3.978-4.183,4.011-4.217a.206.206,0,0,1,.164-.068.274.274,0,0,1,.084.013.234.234,0,0,1,.152.273c-.515,2.069-.569,3.77.841,5.347a4.274,4.274,0,0,0,3.308,1.319c5.7,0,6.382-4.862,6.409-6.953.056-2.885-.705-5.078-2.261-6.518a7.278,7.278,0,0,0-5.045-1.741,19.405,19.405,0,0,0-3.473.34.336.336,0,0,1-.047,0,.233.233,0,0,1-.2-.1.2.2,0,0,1,.028-.245l7.7-7.973h-.039c-.959-.007-4.269-.029-6.613-.029-1.108,0-1.848.005-2.2.015a12.478,12.478,0,0,0-3.652.531.266.266,0,0,1-.072.01.246.246,0,0,1-.19-.092.2.2,0,0,1,.014-.258l4.315-4.436a.229.229,0,0,1,.166-.068H44.4a.229.229,0,0,1,.207.122.185.185,0,0,1-.041.218l-9.373,9.607a8.34,8.34,0,0,1,1.433-.122,8.866,8.866,0,0,1,9.125,8.939,11.125,11.125,0,0,1-3.831,8.844A14.029,14.029,0,0,1,32.834,37.719Zm-10.6-1.034H13.191a.246.246,0,0,1-.22-.137.22.22,0,0,1,.083-.231,5.716,5.716,0,0,0,2.219-4.463c.089-1.1.085-2.2.083-2.4l-14.184,0a.223.223,0,0,1-.22-.15l-.938-2.8A.169.169,0,0,1,.055,26.3l.027-.028c1.271-1.3,12.479-12.786,14.667-15.034a2.586,2.586,0,0,0-.014-3.783.185.185,0,0,1-.027-.218.229.229,0,0,1,.207-.122H23.24a.229.229,0,0,1,.207.122.213.213,0,0,1-.041.218L6.231,25.119h9.111V19.553a.174.174,0,0,1,.056-.136l5.389-5.524a.234.234,0,0,1,.167-.068.262.262,0,0,1,.081.013.2.2,0,0,1,.151.191v11.09h2.44a11.669,11.669,0,0,0,3.8-.64.266.266,0,0,1,.072-.01.244.244,0,0,1,.19.092.2.2,0,0,1-.013.258l-4.19,4.287a1.254,1.254,0,0,1-.772.34H21.2v3.061a5.508,5.508,0,0,0,1.035,3.615c.053.077.1.15.15.222a.183.183,0,0,1,.069.136A.206.206,0,0,1,22.234,36.685ZM43.366,15.438a1.211,1.211,0,0,1-.917-1.013,1.227,1.227,0,0,0,.917,1.012ZM29,3.688a3.032,3.032,0,0,1-1.778-.572A1.641,1.641,0,0,1,27.017.79a1.418,1.418,0,0,1,.206-.2A2.992,2.992,0,0,1,29,.014,3.04,3.04,0,0,1,30.78.586a1.654,1.654,0,0,1,.6,1.137A1.59,1.59,0,0,1,31,2.9a1.677,1.677,0,0,1-.221.218A3.032,3.032,0,0,1,29,3.688ZM29,.681c-.912,0-1.5.459-1.5,1.17s.6,1.17,1.489,1.17c.921,0,1.516-.459,1.516-1.17S29.915.681,29,.681ZM23.388,3.676a3.031,3.031,0,0,1-1.568-.436,1.671,1.671,0,0,1-.772-1.4A1.625,1.625,0,0,1,21.655.572,2.884,2.884,0,0,1,23.373,0h.059a2.714,2.714,0,0,1,2.234,1.034l-.772.272a2.118,2.118,0,0,0-1.53-.625c-.869,0-1.475.476-1.475,1.157,0,.7.615,1.17,1.53,1.17h.044a1.914,1.914,0,0,0,1.431-.654l.716.382a2.652,2.652,0,0,1-2.15.939Zm10.273-.082h-.855V.123h2.867A1.176,1.176,0,0,1,37,1.266a1,1,0,0,1-.8,1.048l.894,1.277-.964,0-.854-1.225H33.661V3.593Zm0-2.8V1.7h1.93c.354,0,.565-.173.565-.463,0-.273-.228-.449-.58-.449Zm-14.046,2.8H18.76V.123h.855V3.592Zm-1.958,0H14.115V.123h.855l-.014,2.8h2.7v.666Z" transform="translate(6.814 11.437)"/>
  </g>
</svg>
